<?xml version="1.0" standalone="no"?>
<!DOCTYPE svg PUBLIC "-//W3C//DTD SVG 20010904//EN"
 "http://www.w3.org/TR/2001/REC-SVG-20010904/DTD/svg10.dtd">
<svg version="1.0" xmlns="http://www.w3.org/2000/svg"
 width="246.000000pt" height="163.000000pt" viewBox="0 0 246.000000 163.000000"
 preserveAspectRatio="xMidYMid meet">

<g transform="translate(0.000000,163.000000) scale(0.100000,-0.100000)"
fill="#000000" stroke="none">
<path d="M1289 1564 c-9 -3 -24 -20 -34 -38 -14 -26 -15 -37 -6 -54 6 -11 11
-55 11 -96 0 -75 0 -77 -32 -96 -18 -11 -36 -20 -40 -20 -5 0 -8 35 -8 78 0
96 -9 110 -72 113 -72 4 -78 -6 -78 -131 0 -96 -2 -109 -21 -126 -47 -42 -50
-63 -49 -282 1 -114 1 -213 1 -219 -1 -10 -61 -13 -264 -13 -216 0 -267 -3
-283 -15 -17 -13 15 -14 279 -15 l297 0 0 240 0 240 36 40 36 39 -4 100 c-1
55 0 102 2 104 14 13 79 17 86 5 14 -22 4 -189 -13 -215 -13 -20 -15 -57 -8
-288 l7 -265 54 0 54 0 0 68 c0 37 3 137 7 223 3 86 3 168 -1 182 -3 15 -20
42 -36 61 l-30 33 53 34 52 34 3 85 c2 52 -2 93 -9 107 -9 18 -9 25 4 37 19
20 152 23 163 4 4 -7 8 -64 8 -128 l1 -115 48 -26 c78 -42 80 -46 79 -148 0
-72 3 -91 14 -91 11 0 14 20 14 96 0 95 0 96 -32 126 -17 16 -49 38 -71 49
l-38 20 4 77 c3 42 8 91 11 107 5 21 1 37 -12 53 -15 20 -29 24 -93 27 -40 2
-81 2 -90 -1z m-71 -657 l-3 -222 -30 0 -30 0 -3 240 c-1 132 0 246 4 255 4
12 12 8 35 -18 l29 -33 -2 -222z"/>
<path d="M1548 888 c101 -101 102 -102 102 -149 0 -37 -4 -51 -19 -58 -26 -14
-31 -5 -31 60 0 32 -4 61 -10 64 -6 4 -10 -23 -10 -74 l0 -81 316 0 c280 0
315 2 304 15 -10 13 -53 15 -271 15 l-259 0 0 63 0 63 -70 69 c-72 71 -81 85
-55 85 9 0 12 6 9 15 -4 11 -21 15 -58 15 l-51 0 103 -102z"/>
<path d="M1602 975 c-10 -12 4 -15 105 -17 l117 -3 -59 -57 c-41 -39 -56 -61
-49 -68 6 -6 37 18 94 75 l85 85 -140 0 c-109 -1 -143 -4 -153 -15z"/>
<path d="M1633 482 c-11 -7 -16 -25 -14 -53 0 -9 13 -21 27 -28 50 -22 99 40
62 77 -13 13 -57 16 -75 4z"/>
<path d="M2080 320 l0 -170 54 0 55 0 3 43 3 42 24 -42 c25 -43 25 -43 84 -43
l59 0 -41 57 c-23 32 -37 61 -32 67 4 6 22 30 40 54 l33 42 -59 0 -60 0 -26
-47 -27 -48 0 108 0 107 -55 0 -55 0 0 -170z"/>
<path d="M168 358 l-3 -113 -29 0 c-23 -1 -33 -8 -45 -34 -15 -31 -14 -33 4
-44 53 -31 112 -28 149 9 30 31 36 62 36 190 l0 104 -55 0 -54 0 -3 -112z"/>
<path d="M1050 311 l0 -161 83 0 c140 0 212 55 210 161 -2 105 -57 149 -199
157 l-94 5 0 -162z m168 49 c44 -41 15 -120 -43 -120 -24 0 -25 2 -25 63 0 35
3 67 7 70 12 13 39 7 61 -13z"/>
<path d="M870 410 c0 -29 -4 -40 -15 -40 -11 0 -15 -11 -15 -39 0 -25 5 -41
15 -45 11 -4 15 -22 15 -71 l0 -65 50 0 50 0 0 70 c0 56 3 70 15 70 11 0 15
11 15 40 0 29 -4 40 -15 40 -11 0 -15 11 -15 40 l0 40 -50 0 -50 0 0 -40z"/>
<path d="M680 367 c-73 -25 -77 -109 -5 -123 42 -8 48 -34 7 -34 -15 0 -32 4
-38 10 -6 6 -14 -1 -21 -20 -10 -27 -9 -31 10 -42 11 -6 45 -11 74 -11 62 0
103 29 103 72 0 37 -10 48 -55 63 -46 15 -45 34 2 31 28 -2 34 2 39 23 4 14 5
26 3 28 -13 11 -90 13 -119 3z"/>
<path d="M1934 370 c-12 -5 -25 -13 -29 -19 -9 -16 -25 -13 -25 4 0 11 -12 15
-50 15 l-50 0 0 -110 0 -110 50 0 50 0 0 58 c0 64 10 88 34 79 12 -5 16 -21
16 -72 l0 -65 50 0 50 0 0 89 c0 70 -4 93 -17 109 -22 25 -51 33 -79 22z"/>
<path d="M330 313 c0 -128 31 -166 131 -166 52 0 64 3 87 27 24 24 27 35 31
111 l3 85 -51 0 -51 0 0 -69 c0 -72 -10 -92 -35 -71 -10 9 -15 33 -15 76 l0
64 -50 0 -50 0 0 -57z"/>
<path d="M1400 260 l0 -110 50 0 50 0 0 49 c0 67 7 81 41 81 28 0 29 2 29 45
0 49 -10 56 -48 29 -20 -14 -22 -14 -22 0 0 12 -11 16 -50 16 l-50 0 0 -110z"/>
<path d="M1620 260 l0 -110 50 0 50 0 0 110 0 110 -50 0 -50 0 0 -110z"/>
</g>
</svg>
