<?xml version="1.0" standalone="no"?>
<!DOCTYPE svg PUBLIC "-//W3C//DTD SVG 20010904//EN"
 "http://www.w3.org/TR/2001/REC-SVG-20010904/DTD/svg10.dtd">
<svg version="1.0" xmlns="http://www.w3.org/2000/svg"
 width="454.000000pt" height="455.000000pt" viewBox="0 0 454.000000 455.000000"
 preserveAspectRatio="xMidYMid meet">
<metadata>
Created by potrace 1.16, written by Peter Selinger 2001-2019
</metadata>
<g transform="translate(0.000000,455.000000) scale(0.100000,-0.100000)"
fill="#000000" stroke="none">
<path d="M1470 4537 c0 -19 -37 -51 -44 -38 -12 19 -44 6 -59 -24 -10 -22 -27
-35 -55 -44 -40 -13 -58 -33 -47 -52 8 -12 -13 -49 -28 -49 -24 0 -67 -25 -67
-38 0 -9 -7 -11 -22 -6 -20 6 -21 5 -9 -10 11 -13 11 -20 -5 -43 -11 -18 -17
-42 -15 -66 2 -26 -2 -39 -14 -43 -10 -4 -13 -13 -9 -26 3 -10 -1 -29 -9 -42
-9 -12 -21 -42 -27 -66 -6 -24 -21 -56 -32 -71 -14 -18 -23 -49 -26 -84 -4
-47 -1 -62 17 -85 11 -16 21 -32 21 -36 0 -4 7 -15 16 -25 13 -14 17 -52 21
-201 2 -101 7 -190 10 -198 5 -13 26 60 37 131 5 33 44 109 55 109 5 0 12 16
15 35 6 32 10 35 40 35 18 0 36 3 40 7 9 9 29 12 91 14 84 3 149 38 129 71 -3
5 3 18 14 28 15 14 28 17 53 12 19 -4 53 -7 77 -6 23 0 42 -3 42 -8 0 -15 81
-8 118 11 21 10 52 17 72 16 19 -2 40 1 45 5 6 5 46 9 90 9 106 1 118 2 132
13 18 14 30 3 31 -29 1 -37 57 -150 81 -163 11 -5 43 -10 71 -10 64 0 97 22
128 84 13 25 28 46 34 46 5 0 8 -7 4 -15 -3 -9 0 -15 10 -15 8 0 18 10 23 22
5 13 10 17 14 11 11 -18 -11 -64 -33 -70 -23 -6 -27 -33 -5 -33 8 0 34 6 57
14 74 24 96 27 101 13 7 -17 116 -21 184 -6 47 11 66 23 117 71 33 32 64 58
67 58 9 0 16 -21 24 -80 3 -25 13 -69 21 -99 12 -42 19 -52 33 -48 13 3 22 -6
35 -35 15 -37 48 -185 45 -205 -4 -24 2 -63 10 -63 5 0 10 83 10 187 2 200 3
213 32 270 16 31 19 59 19 163 0 95 4 131 15 146 16 21 20 74 6 74 -5 0 -8 12
-8 27 0 30 -43 73 -71 73 -32 0 -56 41 -57 98 -1 61 -10 72 -61 79 -52 7 -73
19 -111 62 -17 21 -49 50 -71 65 -23 15 -45 41 -51 57 l-10 29 -629 0 -629 0
-7 -31 c-7 -35 -26 -30 -26 7 0 21 -5 24 -35 24 -23 0 -35 -5 -35 -13z"/>
<path d="M1502 3269 c-38 -19 -82 -64 -82 -84 0 -4 19 -5 43 -2 39 5 85 -1
292 -42 22 -4 59 -13 81 -20 54 -15 108 -9 112 13 2 9 10 16 17 16 27 0 26 20
-2 46 -48 46 -80 53 -234 54 -126 2 -147 4 -164 21 -20 18 -22 18 -63 -2z"/>
<path d="M2795 3263 c-11 -2 -27 -7 -35 -10 -8 -2 -55 -7 -103 -9 -49 -2 -105
-11 -125 -19 -20 -9 -42 -13 -50 -10 -29 11 -100 -68 -90 -101 1 -5 -5 -20
-14 -34 -9 -14 -18 -32 -20 -40 -2 -8 -9 -21 -15 -28 -7 -7 -13 -29 -13 -47 0
-19 -4 -36 -9 -39 -11 -7 -2 -46 10 -46 4 0 20 5 35 10 15 6 30 7 33 3 10 -13
50 -33 66 -33 8 0 15 -4 15 -8 0 -5 -13 -7 -30 -4 -16 2 -37 1 -46 -2 -30 -12
28 -46 78 -46 35 1 40 3 28 13 -17 13 -18 93 -1 110 11 11 34 0 26 -14 -4 -5
-1 -17 4 -26 6 -10 11 -15 11 -11 0 4 11 3 25 -2 41 -16 205 -15 258 0 72 22
61 52 -23 57 -25 2 -54 7 -65 12 -58 27 -182 36 -245 17 -29 -9 -56 -14 -59
-11 -7 8 30 43 69 64 71 38 39 56 -37 21 -43 -19 -43 -19 -43 1 0 13 12 25 35
35 19 8 36 14 37 14 2 0 35 9 73 19 39 11 115 25 170 31 87 9 105 8 133 -5 18
-9 32 -23 32 -31 0 -8 5 -14 10 -14 6 0 10 -6 10 -14 0 -9 7 -12 20 -9 22 6
25 20 11 55 -5 13 -12 35 -15 50 -4 18 -25 42 -61 68 -30 22 -58 39 -62 39 -4
-1 -17 -3 -28 -6z"/>
<path d="M1667 2984 c-3 -3 -36 -14 -74 -24 -54 -14 -68 -21 -68 -36 0 -16 9
-20 48 -22 28 -2 47 1 47 7 0 6 5 11 11 11 5 0 7 -5 4 -10 -8 -14 28 -26 102
-34 l61 -7 7 30 c8 39 17 44 50 29 24 -11 24 -13 8 -22 -16 -9 -16 -11 7 -17
44 -12 90 -10 90 4 0 17 -36 49 -75 66 -16 7 -38 17 -47 22 -20 10 -161 12
-171 3z"/>
<path d="M1172 2638 c0 -40 5 -93 10 -118 5 -25 12 -65 14 -90 3 -24 9 -49 14
-54 6 -6 10 -35 10 -66 0 -36 7 -68 20 -93 11 -20 20 -46 20 -56 0 -11 4 -22
9 -25 5 -3 12 -22 15 -41 11 -57 174 -403 201 -425 8 -7 15 -20 15 -30 0 -10
7 -23 15 -30 8 -6 17 -21 21 -33 4 -12 13 -27 20 -35 7 -7 19 -21 26 -30 7
-10 30 -31 51 -46 20 -16 37 -37 37 -48 0 -10 5 -16 10 -13 5 3 10 2 10 -4 0
-6 16 -26 35 -45 19 -20 35 -40 35 -45 0 -6 12 -14 28 -17 15 -4 38 -15 52
-24 14 -9 38 -20 54 -24 17 -4 41 -15 55 -25 39 -28 96 -45 117 -36 25 10 91
7 134 -7 46 -15 80 -11 99 13 10 12 32 21 57 24 60 5 106 28 134 65 29 39 37
47 81 80 46 34 69 58 69 70 0 6 5 10 10 10 14 0 70 51 70 64 0 7 9 19 20 29
11 9 20 23 20 30 0 11 13 37 80 160 11 20 23 37 26 37 9 0 -5 -273 -16 -307
-28 -95 -97 -203 -151 -235 -16 -10 -29 -26 -29 -36 0 -11 -26 -46 -57 -79
-55 -56 -69 -72 -138 -159 -16 -20 -41 -47 -54 -58 -20 -18 -42 -56 -45 -78
-1 -3 -4 -10 -8 -13 -14 -14 13 -45 38 -45 40 0 79 -39 79 -77 -1 -18 -6 -38
-13 -45 -14 -14 -17 -88 -3 -88 4 0 18 28 31 63 12 34 30 71 39 82 26 31 81
113 81 120 0 3 14 26 30 50 17 24 30 50 30 58 0 8 9 26 20 40 21 26 159 301
177 352 6 17 16 51 22 78 6 26 16 67 22 92 6 24 10 85 7 134 -3 77 -8 95 -31
128 -15 22 -27 45 -27 52 0 7 30 74 66 149 118 246 174 441 179 622 2 69 1
112 -1 95 -3 -16 -11 -43 -18 -60 -8 -16 -17 -55 -21 -85 -4 -30 -12 -66 -17
-80 -6 -14 -12 -38 -15 -54 -3 -16 -11 -35 -19 -43 -8 -8 -14 -28 -14 -44 0
-18 -5 -29 -13 -29 -22 0 -50 -37 -43 -56 7 -18 -14 -74 -27 -74 -7 0 -4 19
10 56 2 7 0 15 -6 18 -14 9 -91 -104 -91 -135 0 -9 -15 -32 -32 -51 -18 -19
-42 -61 -53 -94 -10 -32 -27 -65 -37 -72 -9 -7 -18 -27 -20 -45 -2 -26 -7 -32
-28 -33 -13 -1 -31 -11 -38 -23 -8 -11 -21 -21 -28 -21 -8 0 -14 -9 -14 -20 0
-13 -10 -24 -25 -30 -17 -7 -27 -20 -32 -41 -4 -23 -15 -35 -37 -44 -17 -7
-44 -25 -59 -39 -15 -14 -34 -23 -41 -20 -8 3 -19 -3 -25 -15 -9 -16 -18 -19
-40 -15 -23 5 -30 2 -36 -14 -3 -12 -19 -28 -36 -36 -25 -12 -35 -13 -62 -2
-18 7 -53 12 -79 12 -27 -1 -49 3 -51 8 -2 5 -24 4 -50 -2 -28 -5 -47 -6 -47
0 0 5 -12 7 -27 6 -21 -2 -30 3 -41 25 -9 18 -21 27 -38 27 -13 0 -24 4 -24 8
0 4 -22 25 -50 46 -27 21 -59 53 -71 72 -12 20 -29 34 -40 34 -12 0 -23 10
-29 25 -5 14 -13 25 -17 25 -15 0 -35 -17 -31 -26 1 -5 -10 -10 -27 -11 -16
-1 -23 0 -15 4 37 15 40 53 4 53 -20 0 -25 4 -20 16 4 10 0 18 -13 21 -12 3
-17 11 -14 19 3 8 -6 23 -20 34 -18 14 -23 26 -20 44 4 21 -1 27 -31 40 -30
13 -36 20 -36 45 0 17 -6 32 -12 33 -7 0 -17 2 -23 3 -5 2 -15 3 -21 4 -6 0
-19 20 -28 44 -10 23 -26 61 -37 84 -10 24 -16 49 -13 58 4 8 2 15 -3 15 -13
0 -30 82 -48 230 -8 69 -19 141 -25 160 -5 19 -10 50 -10 67 0 18 -4 33 -9 33
-5 0 -9 -33 -9 -72z"/>
<path d="M2480 2521 c0 -8 76 -99 93 -112 28 -20 107 -89 131 -114 24 -25 26
-31 12 -33 -9 -2 -22 1 -29 6 -7 5 -27 10 -45 10 -18 0 -46 4 -62 7 -16 3 -31
2 -35 -4 -11 -19 -26 -12 -23 12 2 17 -3 23 -20 25 -13 2 -26 10 -29 18 -3 8
-12 14 -19 14 -8 0 -25 7 -37 15 -41 27 -145 -17 -147 -61 0 -7 -11 -15 -25
-18 -65 -16 7 -56 102 -56 37 0 84 -4 104 -9 20 -5 43 -5 51 0 15 8 113 -3
125 -15 12 -12 -6 -17 -73 -20 -38 -2 -127 -9 -199 -17 -71 -7 -165 -13 -207
-12 -62 1 -78 -1 -78 -13 0 -9 10 -14 27 -14 14 0 35 -7 45 -17 15 -14 24 -14
58 -4 22 7 44 10 49 7 5 -3 15 2 24 12 14 16 52 19 145 13 6 -1 12 -13 12 -28
0 -22 2 -25 10 -13 7 12 12 12 22 2 10 -10 10 -18 -2 -40 -19 -33 -76 -42 -96
-14 -11 16 -13 15 -23 -12 -10 -25 -15 -28 -40 -23 -19 4 -33 1 -41 -8 -8 -10
-34 -14 -88 -14 -62 1 -81 5 -99 21 -12 11 -26 17 -32 13 -17 -10 -51 4 -51
22 0 14 -2 14 -23 0 -19 -12 -26 -13 -41 -2 -10 8 -23 12 -29 9 -7 -2 -23 12
-36 31 -21 31 -22 36 -7 50 8 9 18 16 21 15 76 -5 -10 28 -93 36 -47 5 -71 3
-76 -5 -8 -12 63 -87 129 -136 22 -16 42 -33 45 -37 3 -4 15 -9 25 -11 11 -1
26 -6 33 -10 7 -5 12 -4 12 2 0 7 14 9 38 5 55 -8 91 -24 97 -45 9 -26 26 -29
175 -25 102 2 143 7 168 20 17 9 32 21 32 26 0 6 5 10 12 10 6 0 64 54 128
120 65 65 120 116 124 113 3 -4 6 -21 6 -40 0 -43 17 -42 36 2 17 42 18 82 0
114 -27 49 -153 179 -201 210 -50 30 -85 40 -85 22z"/>
<path d="M1935 2318 c-44 -10 -90 -20 -103 -22 -26 -3 -49 -22 -39 -33 4 -4
34 -2 67 3 44 7 61 7 64 -2 6 -15 58 -25 72 -13 6 5 36 10 68 10 31 1 56 4 56
8 0 14 -58 60 -81 64 -13 3 -60 -4 -104 -15z"/>
<path d="M1320 1828 c-25 -64 -50 -162 -50 -201 0 -60 41 -218 80 -308 18 -41
63 -138 101 -216 38 -77 69 -147 69 -155 0 -7 9 -24 20 -38 11 -14 20 -31 20
-38 0 -7 6 -19 13 -26 6 -8 30 -38 51 -68 21 -30 54 -65 73 -78 97 -66 134
-132 188 -335 44 -166 48 -178 76 -231 l27 -52 -22 -10 c-13 -5 -29 -6 -37 -1
-9 4 -45 52 -82 106 -37 54 -85 123 -107 153 -22 30 -48 66 -57 80 -24 35 -81
111 -98 132 -8 9 -21 31 -30 48 -16 31 -16 31 4 21 11 -6 24 -10 28 -10 4 1
21 -3 36 -9 39 -16 40 -16 21 13 -12 18 -15 37 -10 67 6 39 3 47 -29 83 -20
22 -38 51 -42 65 -3 14 -13 36 -22 50 -9 14 -23 37 -31 53 -16 32 -38 34 -69
6 -27 -25 -23 -54 20 -143 16 -33 29 -67 29 -76 0 -9 5 -21 11 -27 7 -7 9 -19
5 -28 -5 -14 -8 -14 -25 2 -10 10 -22 29 -26 43 -4 14 -22 48 -40 75 -18 28
-40 66 -48 85 -19 47 -148 243 -200 305 -74 87 -137 146 -172 161 -32 13 -37
12 -92 -16 -32 -16 -85 -41 -118 -54 -71 -29 -311 -130 -375 -158 -42 -19 -57
-25 -145 -63 -19 -8 -50 -22 -67 -30 -18 -7 -69 -30 -113 -49 l-80 -35 -3
-460 -2 -461 620 0 620 0 46 35 c25 19 50 32 55 29 13 -8 -9 -33 -41 -47 -22
-9 -23 -11 -6 -15 10 -2 22 1 25 6 4 7 12 8 21 2 8 -6 22 -10 31 -10 14 0 16
6 9 34 -4 18 -11 39 -15 45 -3 7 -1 18 5 26 10 12 18 9 51 -18 21 -17 39 -35
39 -39 0 -15 -24 -8 -47 14 -13 12 -23 16 -23 10 0 -7 5 -12 11 -12 7 0 9 -11
6 -30 -5 -24 -3 -30 11 -30 10 0 23 5 29 11 8 8 13 8 17 0 8 -13 86 -15 86 -3
0 5 -9 17 -20 27 -24 22 -26 35 -5 35 8 0 15 -6 15 -13 0 -8 8 -22 19 -31 16
-15 19 -15 24 -1 4 8 13 15 22 15 19 0 19 21 0 67 -8 20 -14 38 -12 40 6 5 97
-58 97 -68 0 -15 -27 -10 -45 7 -9 9 -19 13 -23 9 -4 -4 -1 -10 6 -12 20 -8
14 -51 -8 -58 -11 -3 -20 -11 -20 -16 0 -6 73 -8 187 -7 l188 3 13 28 c8 16
69 83 136 150 68 67 130 133 139 147 8 14 18 49 22 77 12 92 -39 190 -93 178
-12 -3 -31 -1 -41 4 -23 13 -73 -8 -66 -27 3 -8 -4 -7 -20 4 -14 9 -25 21 -25
26 0 5 -8 7 -19 3 -11 -3 -42 7 -76 25 -31 16 -62 30 -68 30 -16 0 -100 91
-91 99 4 3 9 0 11 -6 3 -7 11 -13 19 -13 8 0 14 -8 14 -17 0 -14 2 -15 9 -5 7
11 11 11 22 0 19 -20 62 -30 56 -14 -3 7 5 13 19 14 16 1 24 -3 24 -15 0 -19
13 -9 16 13 1 8 -9 20 -22 26 -14 6 -23 16 -21 22 6 15 -19 45 -148 177 -62
64 -155 170 -208 236 -53 66 -103 125 -112 133 -30 24 -83 114 -95 160 -7 25
-13 104 -13 175 0 150 -5 215 -18 215 -5 0 -14 -10 -19 -22z"/>
<path d="M3199 1292 l-50 -47 15 -90 c33 -197 50 -725 24 -725 -25 0 -39 17
-77 91 -21 41 -57 110 -80 155 -23 44 -61 99 -84 121 -51 50 -165 113 -202
113 -26 0 -27 -2 -22 -41 3 -22 17 -65 32 -95 l26 -54 -19 -27 c-21 -30 -32
-73 -37 -138 -2 -22 -3 -45 -4 -52 -1 -6 -32 -59 -71 -117 -38 -59 -70 -109
-70 -111 0 -3 -11 -23 -26 -44 -18 -27 -23 -46 -19 -64 5 -18 -3 -44 -24 -88
-17 -35 -31 -67 -31 -71 0 -5 425 -8 945 -8 l945 0 9 23 c5 12 43 92 85 177
l76 154 0 256 0 255 -52 17 c-29 9 -96 32 -148 51 -52 19 -138 49 -190 66 -52
18 -104 37 -115 41 -11 5 -40 16 -65 24 -25 8 -94 33 -155 56 -60 22 -146 53
-190 69 -131 47 -247 91 -295 114 -25 12 -53 25 -63 29 -14 6 -30 -3 -68 -40z"/>
</g>
</svg>
